HIERARCHY
ROOT Hips
{
	OFFSET 0.000000 0.000000 0.000000
	CHANNELS 6 Xposition Yposition Zposition Xrotation Yrotation Zrotation
	JOINT Chest
	{
		OFFSET 0.000000 0.009282 11.569106
		CHANNELS 3 Xrotation Yrotation Zrotation
		JOINT Chest2
		{
			OFFSET 0.000000 -0.016863 9.269641
			CHANNELS 3 Xrotation Yrotation Zrotation
			JOINT Chest3
			{
				OFFSET 0.000000 0.000000 8.374491
				CHANNELS 3 Xrotation Yrotation Zrotation
				JOINT Chest4
				{
					OFFSET 0.000000 0.000000 8.374493
					CHANNELS 3 Xrotation Yrotation Zrotation
					JOINT Neck
					{
						OFFSET 0.000000 -0.000001 12.152554
						CHANNELS 3 Xrotation Yrotation Zrotation
						JOINT Head
						{
							OFFSET 0.000000 -0.040100 7.802319
							CHANNELS 3 Xrotation Yrotation Zrotation
							End Site
							{
								OFFSET 0.000000 -0.020946 14.853096
							}
						}
					}
					JOINT RightCollar
					{
						OFFSET -2.894404 0.000000 6.791374
						CHANNELS 3 Xrotation Yrotation Zrotation
						JOINT RightShoulder
						{
							OFFSET -13.574684 0.000000 0.000000
							CHANNELS 3 Xrotation Yrotation Zrotation
							JOINT RightElbow
							{
								OFFSET -23.923903 0.000000 0.000000
								CHANNELS 3 Xrotation Yrotation Zrotation
								JOINT RightWrist
								{
									OFFSET -19.846718 -0.012765 0.000000
									CHANNELS 3 Xrotation Yrotation Zrotation
									End Site
									{
										OFFSET -14.973145 0.000000 0.000000
									}
								}
							}
						}
					}
					JOINT LeftCollar
					{
						OFFSET 2.894404 0.000000 6.791374
						CHANNELS 3 Xrotation Yrotation Zrotation
						JOINT LeftShoulder
						{
							OFFSET 13.574684 0.000000 0.000000
							CHANNELS 3 Xrotation Yrotation Zrotation
							JOINT LeftElbow
							{
								OFFSET 23.923903 0.000000 0.000000
								CHANNELS 3 Xrotation Yrotation Zrotation
								JOINT LeftWrist
								{
									OFFSET 19.846718 -0.012765 0.000000
									CHANNELS 3 Xrotation Yrotation Zrotation
									End Site
									{
										OFFSET 14.973145 0.000000 0.000000
									}
								}
							}
						}
					}
				}
			}
		}
	}
	JOINT RightHip
	{
		OFFSET -9.469263 -0.004642 0.045487
		CHANNELS 3 Xrotation Yrotation Zrotation
		JOINT RightKnee
		{
			OFFSET 0.000000 -0.002666 -40.478676
			CHANNELS 3 Xrotation Yrotation Zrotation
			JOINT RightAnkle
			{
				OFFSET 0.000000 -0.049110 -35.224068
				CHANNELS 3 Xrotation Yrotation Zrotation
				JOINT RightToe
				{
					OFFSET 0.000000 -12.539530 -6.151390
					CHANNELS 3 Xrotation Yrotation Zrotation
					End Site
					{
						OFFSET 0.000000 -5.044995 -1.291870
					}
				}
			}
		}
	}
	JOINT LeftHip
	{
		OFFSET 9.469263 -0.004642 0.045487
		CHANNELS 3 Xrotation Yrotation Zrotation
		JOINT LeftKnee
		{
			OFFSET 0.000000 -0.002666 -40.478676
			CHANNELS 3 Xrotation Yrotation Zrotation
			JOINT LeftAnkle
			{
				OFFSET 0.000000 -0.049110 -35.224068
				CHANNELS 3 Xrotation Yrotation Zrotation
				JOINT LeftToe
				{
					OFFSET 0.000000 -12.539530 -6.151390
					CHANNELS 3 Xrotation Yrotation Zrotation
					End Site
					{
						OFFSET 0.000000 -5.044995 -1.291870
					}
				}
			}
		}
	}
}
MOTION
Frames: 9
Frame Time: 0.016667
69.512878 12.881000 80.817039 9.222002 5.310898 251.669795 3.296302 -2.204206 1.798875 1.555103 -0.962661 0.841659 1.555104 -0.962663 0.841658 1.164977 -0.724145 0.628788 19.441222 -2.335399 -3.562457 -0.130938 -3.147919 -7.247005 3.837018 -11.878087 -0.911391 18.445995 -64.661237 52.945758 11.829823 -0.816008 34.123072 -6.153959 19.701025 23.423273 -0.516899 7.776193 1.846790 -64.087269 71.730189 80.392529 -19.639741 -12.806772 8.401995 -1.008642 -12.246772 -13.987258 17.421338 -4.624492 -8.231589 19.250183 -2.850539 6.598161 -7.932524 -5.090447 1.528172 -19.606493 6.202111 1.570872 -12.225029 0.452571 -0.269403 2.973910 3.224800 9.685335 14.557418 -4.608791 4.087709 -1.034948 -1.759221 -0.573982 
67.506676 13.036688 80.963303 7.944747 6.100331 252.930593 3.252561 -1.894964 1.430678 1.555724 -0.831037 0.697652 1.555724 -0.831037 0.697642 1.165825 -0.625060 0.521111 19.520163 -1.859329 -3.703488 0.047322 -2.238792 -7.351987 3.551572 -11.736954 -1.234918 19.398827 -66.815322 53.060051 12.672602 -0.871452 37.793513 -6.022631 20.529727 24.658180 -0.602899 7.893775 1.893053 -61.637826 71.057634 79.129934 -19.517573 -13.485213 8.990546 -0.534136 -11.813932 -12.709965 17.565619 -2.941038 -8.839113 21.789277 -2.873883 6.170464 -5.866732 -6.861903 1.713974 -24.248403 7.548987 2.272228 -11.776034 2.822044 -0.433412 4.800962 3.215624 11.485824 14.640902 -5.822525 3.283139 -2.649648 -1.080769 -0.402341 
65.606003 13.210179 81.105942 6.748722 6.877618 254.053203 3.187315 -1.589990 1.224744 1.548228 -0.712899 0.595380 1.548229 -0.712899 0.595377 1.160463 -0.536187 0.444727 19.624836 -1.385972 -3.870290 0.273701 -1.328276 -7.506378 3.852824 -11.382947 -1.341029 19.764397 -69.346364 52.704622 13.534397 -0.913433 40.950406 -6.440922 21.627685 26.569554 -0.402792 8.052036 1.924744 -59.060407 70.372887 76.985699 -19.552094 -14.163849 9.703547 0.040216 -11.636334 -11.537007 17.127495 -1.151185 -9.090099 25.230574 -3.154143 5.172109 -2.781119 -8.915335 2.361842 -30.075058 9.006696 3.323831 -10.354452 4.815696 0.600143 4.994011 3.205618 10.866565 15.003320 -7.233721 3.172369 -3.405057 -0.172364 -0.277234 
63.778767 13.335489 81.200531 5.386576 7.676453 254.802338 3.212194 -1.070027 1.309856 1.490741 -0.634360 0.552551 1.490740 -0.634360 0.552551 1.117472 -0.477121 0.412864 19.745662 -0.862279 -4.045355 0.533447 -0.324571 -7.662367 4.752656 -10.821451 -1.139706 19.769086 -71.850462 51.997250 14.061874 -1.073250 43.688489 -7.592277 22.870619 29.189916 0.045721 7.998124 2.398127 -57.355790 69.664391 74.927421 -19.324074 -14.846441 10.442253 0.733077 -11.739458 -10.444729 15.885147 1.237393 -9.032392 29.808158 -3.728158 3.502930 1.730270 -11.087867 3.926636 -37.406071 10.325077 4.766441 -8.217536 6.806063 3.327842 4.688012 3.087101 7.262482 14.589199 -7.768807 4.081449 -3.380014 0.180203 -0.049995 
61.547195 13.276670 81.137070 4.106775 8.336241 254.395450 3.268577 -0.592633 2.331829 1.367939 -0.582549 0.543243 1.367940 -0.582550 0.543242 1.025430 -0.438131 0.406126 19.886299 -0.276084 -4.166730 0.831184 0.775313 -7.703855 5.963538 -10.262071 -0.745982 20.177081 -73.894478 51.692289 14.044571 -1.505915 45.875184 -9.268042 23.858358 32.221376 0.817779 7.554882 3.533455 -57.072255 68.908372 73.644117 -18.782807 -15.349033 10.956408 1.437772 -12.108325 -9.513907 14.048378 4.189156 -7.969627 35.115433 -4.318597 2.178413 7.612892 -13.125732 5.588505 -46.218353 10.928469 6.631073 -6.468258 8.638033 6.664047 4.433777 2.780125 4.471195 14.109608 -8.230188 4.934958 -3.373673 0.469836 -0.245120 
59.652424 13.167404 81.022491 2.694834 8.440587 254.599072 2.874929 -0.151653 2.574893 1.192128 -0.519345 0.556420 1.192131 -0.519345 0.556419 0.893621 -0.390597 0.416301 20.025059 0.300550 -4.219898 1.120559 1.836990 -7.626721 6.573056 -9.968935 -0.442457 21.125278 -75.386861 51.394855 13.613043 -2.623951 47.461516 -11.054784 24.532609 35.231601 1.678527 6.803509 5.097348 -57.575059 68.123815 72.976398 -18.339000 -15.493774 11.018879 1.968746 -12.473035 -8.771802 11.156706 6.870478 -7.837539 40.980944 -4.307516 1.492561 12.533689 -15.481221 8.359980 -53.868817 12.233745 8.369362 -5.103182 10.585599 7.591652 4.214686 2.840910 4.391772 12.333521 -8.888010 4.603912 -2.636335 0.457673 -0.451191 
57.502350 13.049582 80.893257 1.644735 8.669773 254.954187 2.835492 -0.049483 2.508291 0.985593 -0.415378 0.561127 0.985594 -0.415378 0.561128 0.738812 -0.312440 0.420174 20.146353 0.841053 -4.211466 1.370493 2.815220 -7.450345 6.210098 -9.808376 -0.483888 22.398834 -76.719335 50.767427 13.329901 -4.715260 48.381802 -12.989222 25.224951 38.454901 2.033504 6.383800 6.288436 -57.557171 66.777885 72.152547 -18.386296 -15.316184 10.674602 2.101753 -12.439813 -8.226328 8.024378 8.788999 -7.852323 47.128172 -3.336017 1.049085 17.380284 -17.599074 12.950024 -58.915060 14.930027 9.325669 -3.638143 11.984573 6.735971 4.211571 3.464685 5.101165 10.158828 -9.495365 4.990316 -1.651155 0.390290 -0.813241 
55.531590 12.941833 80.760246 0.621238 8.336909 256.000736 2.438215 -0.136961 1.730689 0.788078 -0.265137 0.551015 0.788079 -0.265137 0.551012 0.590820 -0.199564 0.412917 20.202456 1.325682 -4.162329 1.492309 3.683086 -7.216739 5.487462 -9.675786 -0.736082 21.902514 -78.195025 48.311632 13.623632 -7.528740 48.712728 -15.429379 25.921195 42.313135 1.582971 6.612184 6.689048 -56.341360 64.775281 70.545950 -18.930260 -14.929518 10.130397 1.587482 -11.851832 -7.893815 4.247432 10.024562 -8.312020 52.734924 -1.823648 1.782511 21.371276 -19.223192 15.943205 -60.129577 17.530900 9.265030 -2.501455 13.086575 4.610926 4.092155 4.331384 5.473753 8.073191 -9.738762 5.569602 -0.711179 0.056286 -0.693707 
53.637184 12.835109 80.645844 -0.341500 7.961206 256.919314 2.105836 -0.148811 1.087351 0.640345 -0.109563 0.523176 0.640345 -0.109564 0.523175 0.480167 -0.082720 0.392267 20.186749 1.735861 -4.078707 1.473365 4.408675 -6.940886 5.148325 -9.484178 -0.891234 17.649793 -79.923226 42.559790 14.556533 -10.471377 48.607007 -18.604389 26.442133 46.621744 0.939879 7.184561 6.801364 -54.548558 63.008481 68.111937 -19.766436 -14.445292 9.617647 0.381144 -10.914882 -7.827038 0.548408 10.710323 -8.157505 57.372332 0.066985 3.622204 22.718142 -20.682033 16.014755 -55.113240 19.305557 7.252354 -1.571119 14.048244 2.625343 3.888166 5.043507 6.065536 6.588870 -9.929027 5.837499 -0.226192 -0.177837 -0.532982 
